<?xml version="1.0" encoding="UTF-8" standalone="no"?>
<!-- Generator: Adobe Illustrator 19.1.0, SVG Export Plug-In . SVG Version: 6.00 Build 0)  -->

<svg
   xmlns:dc="http://purl.org/dc/elements/1.1/"
   xmlns:cc="http://creativecommons.org/ns#"
   xmlns:rdf="http://www.w3.org/1999/02/22-rdf-syntax-ns#"
   xmlns:svg="http://www.w3.org/2000/svg"
   xmlns="http://www.w3.org/2000/svg"
   xmlns:sodipodi="http://sodipodi.sourceforge.net/DTD/sodipodi-0.dtd"
   xmlns:inkscape="http://www.inkscape.org/namespaces/inkscape"
   version="1.1"
   id="Capa_1"
   x="0px"
   y="0px"
   viewBox="0 0 50 50"
   xml:space="preserve"
   sodipodi:docname="loading-icon.svg"
   width="50"
   height="50"
   inkscape:version="0.92.0 r15299"><metadata
     id="metadata57"><rdf:RDF><cc:Work
         rdf:about=""><dc:format>image/svg+xml</dc:format><dc:type
           rdf:resource="http://purl.org/dc/dcmitype/StillImage" /><dc:title></dc:title></cc:Work></rdf:RDF></metadata><defs
     id="defs55" /><sodipodi:namedview
     pagecolor="#ffffff"
     bordercolor="#666666"
     borderopacity="1"
     objecttolerance="10"
     gridtolerance="10"
     guidetolerance="10"
     inkscape:pageopacity="0"
     inkscape:pageshadow="2"
     inkscape:window-width="1246"
     inkscape:window-height="756"
     id="namedview53"
     showgrid="false"
     fit-margin-top="0"
     fit-margin-left="0"
     fit-margin-right="0"
     fit-margin-bottom="0"
     inkscape:zoom="3.5223881"
     inkscape:cx="102.23648"
     inkscape:cy="33.5"
     inkscape:window-x="0"
     inkscape:window-y="0"
     inkscape:window-maximized="0"
     inkscape:current-layer="Capa_1" /><g
     id="g20"
     transform="scale(0.74626866)"><g
       id="g18"><path
         d="M 33.5,0 C 32.119,0 31,1.119 31,2.5 v 17 c 0,1.381 1.119,2.5 2.5,2.5 1.381,0 2.5,-1.119 2.5,-2.5 V 2.5 C 36,1.119 34.881,0 33.5,0 Z"
         id="path2"
         inkscape:connector-curvature="0" /><path
         d="M 33.5,45 C 32.119,45 31,46.119 31,47.5 v 17 c 0,1.381 1.119,2.5 2.5,2.5 1.381,0 2.5,-1.119 2.5,-2.5 v -17 C 36,46.119 34.881,45 33.5,45 Z"
         id="path4"
         inkscape:connector-curvature="0" /><path
         d="m 22,33.619 c 0,-1.381 -1.119,-2.5 -2.5,-2.5 h -17 c -1.381,0 -2.5,1.119 -2.5,2.5 0,1.381 1.119,2.5 2.5,2.5 h 17 c 1.381,0 2.5,-1.119 2.5,-2.5 z"
         id="path6"
         inkscape:connector-curvature="0" /><path
         d="m 64.5,31.119 h -17 c -1.381,0 -2.5,1.119 -2.5,2.5 0,1.381 1.119,2.5 2.5,2.5 h 17 c 1.381,0 2.5,-1.119 2.5,-2.5 0,-1.381 -1.119,-2.5 -2.5,-2.5 z"
         id="path8"
         inkscape:connector-curvature="0" /><path
         d="m 14.079,9.6 c -0.977,-0.977 -2.559,-0.977 -3.535,0 -0.976,0.977 -0.977,2.559 0,3.535 l 12.021,12.021 c 0.488,0.488 1.128,0.732 1.768,0.732 0.64,0 1.279,-0.244 1.768,-0.732 0.977,-0.977 0.977,-2.559 0,-3.535 z"
         id="path10"
         inkscape:connector-curvature="0" /><path
         d="m 45.898,41.42 c -0.977,-0.977 -2.559,-0.977 -3.535,0 -0.976,0.977 -0.977,2.559 0,3.535 l 12.021,12.021 c 0.488,0.488 1.128,0.732 1.768,0.732 0.64,0 1.279,-0.244 1.768,-0.732 0.977,-0.977 0.977,-2.559 0,-3.535 z"
         id="path12"
         inkscape:connector-curvature="0" /><path
         d="m 22.564,42.127 -12.02,12.02 c -0.977,0.977 -0.977,2.559 0,3.535 0.488,0.488 1.128,0.732 1.768,0.732 0.64,0 1.279,-0.244 1.768,-0.732 L 26.1,45.662 c 0.977,-0.977 0.977,-2.559 0,-3.535 -0.977,-0.976 -2.559,-0.977 -3.536,0 z"
         id="path14"
         inkscape:connector-curvature="0" /><path
         d="m 42.363,25.863 c 0.488,0.488 1.128,0.732 1.768,0.732 0.64,0 1.279,-0.244 1.768,-0.732 L 57.92,13.842 c 0.977,-0.977 0.977,-2.559 0,-3.535 -0.977,-0.976 -2.559,-0.977 -3.535,0 L 42.363,22.328 c -0.976,0.977 -0.976,2.559 0,3.535 z"
         id="path16"
         inkscape:connector-curvature="0" /></g></g><g
     id="g22"
     transform="translate(0,-17)" /><g
     id="g24"
     transform="translate(0,-17)" /><g
     id="g26"
     transform="translate(0,-17)" /><g
     id="g28"
     transform="translate(0,-17)" /><g
     id="g30"
     transform="translate(0,-17)" /><g
     id="g32"
     transform="translate(0,-17)" /><g
     id="g34"
     transform="translate(0,-17)" /><g
     id="g36"
     transform="translate(0,-17)" /><g
     id="g38"
     transform="translate(0,-17)" /><g
     id="g40"
     transform="translate(0,-17)" /><g
     id="g42"
     transform="translate(0,-17)" /><g
     id="g44"
     transform="translate(0,-17)" /><g
     id="g46"
     transform="translate(0,-17)" /><g
     id="g48"
     transform="translate(0,-17)" /><g
     id="g50"
     transform="translate(0,-17)" /></svg>