<?xml version="1.0" encoding="UTF-8" standalone="no"?>
<!-- Generator: Adobe Illustrator 19.1.0, SVG Export Plug-In . SVG Version: 6.00 Build 0)  -->

<svg
   xmlns:dc="http://purl.org/dc/elements/1.1/"
   xmlns:cc="http://creativecommons.org/ns#"
   xmlns:rdf="http://www.w3.org/1999/02/22-rdf-syntax-ns#"
   xmlns:svg="http://www.w3.org/2000/svg"
   xmlns="http://www.w3.org/2000/svg"
   xmlns:sodipodi="http://sodipodi.sourceforge.net/DTD/sodipodi-0.dtd"
   xmlns:inkscape="http://www.inkscape.org/namespaces/inkscape"
   version="1.1"
   id="Capa_1"
   x="0px"
   y="0px"
   viewBox="0 0 50.000003 50.000003"
   xml:space="preserve"
   sodipodi:docname="cancel-icon.svg"
   width="50.000004"
   height="50.000004"
   inkscape:version="0.92.0 r15299"><metadata
     id="metadata45"><rdf:RDF><cc:Work
         rdf:about=""><dc:format>image/svg+xml</dc:format><dc:type
           rdf:resource="http://purl.org/dc/dcmitype/StillImage" /><dc:title></dc:title></cc:Work></rdf:RDF></metadata><defs
     id="defs43" /><sodipodi:namedview
     pagecolor="#ffffff"
     bordercolor="#666666"
     borderopacity="1"
     objecttolerance="10"
     gridtolerance="10"
     guidetolerance="10"
     inkscape:pageopacity="0"
     inkscape:pageshadow="2"
     inkscape:window-width="1060"
     inkscape:window-height="743"
     id="namedview41"
     showgrid="false"
     fit-margin-top="0"
     fit-margin-left="0"
     fit-margin-right="0"
     fit-margin-bottom="0"
     inkscape:zoom="0.49663298"
     inkscape:cx="237.60001"
     inkscape:cy="237.6"
     inkscape:window-x="0"
     inkscape:window-y="0"
     inkscape:window-maximized="0"
     inkscape:current-layer="Capa_1" /><g
     id="g8"
     transform="scale(0.10521886)"><g
       id="g6"><path
         d="M 405.6,69.6 C 360.7,24.7 301.1,0 237.6,0 174.1,0 114.5,24.7 69.6,69.6 24.7,114.5 0,174.1 0,237.6 c 0,63.5 24.7,123.1 69.6,168 44.9,44.9 104.5,69.6 168,69.6 63.5,0 123.1,-24.7 168,-69.6 44.9,-44.9 69.6,-104.5 69.6,-168 0,-63.5 -24.7,-123.1 -69.6,-168 z m -19.1,316.9 c -39.8,39.8 -92.7,61.7 -148.9,61.7 -56.2,0 -109.1,-21.9 -148.9,-61.7 C 6.6,304.4 6.6,170.8 88.7,88.7 128.5,48.9 181.4,27 237.6,27 c 56.2,0 109.1,21.9 148.9,61.7 82.1,82.1 82.1,215.7 0,297.8 z"
         id="path2"
         inkscape:connector-curvature="0" /><path
         d="m 342.3,132.9 c -5.3,-5.3 -13.8,-5.3 -19.1,0 L 237.6,218.5 152,132.9 c -5.3,-5.3 -13.8,-5.3 -19.1,0 -5.3,5.3 -5.3,13.8 0,19.1 l 85.6,85.6 -85.6,85.6 c -5.3,5.3 -5.3,13.8 0,19.1 2.6,2.6 6.1,4 9.5,4 3.4,0 6.9,-1.3 9.5,-4 l 85.6,-85.6 85.6,85.6 c 2.6,2.6 6.1,4 9.5,4 3.5,0 6.9,-1.3 9.5,-4 5.3,-5.3 5.3,-13.8 0,-19.1 L 256.7,237.6 342.3,152 c 5.3,-5.3 5.3,-13.8 0,-19.1 z"
         id="path4"
         inkscape:connector-curvature="0" /></g></g><g
     id="g10"
     transform="translate(0,-425.2)" /><g
     id="g12"
     transform="translate(0,-425.2)" /><g
     id="g14"
     transform="translate(0,-425.2)" /><g
     id="g16"
     transform="translate(0,-425.2)" /><g
     id="g18"
     transform="translate(0,-425.2)" /><g
     id="g20"
     transform="translate(0,-425.2)" /><g
     id="g22"
     transform="translate(0,-425.2)" /><g
     id="g24"
     transform="translate(0,-425.2)" /><g
     id="g26"
     transform="translate(0,-425.2)" /><g
     id="g28"
     transform="translate(0,-425.2)" /><g
     id="g30"
     transform="translate(0,-425.2)" /><g
     id="g32"
     transform="translate(0,-425.2)" /><g
     id="g34"
     transform="translate(0,-425.2)" /><g
     id="g36"
     transform="translate(0,-425.2)" /><g
     id="g38"
     transform="translate(0,-425.2)" /></svg>