<?xml version="1.0" encoding="UTF-8" standalone="no"?>
<svg
   xmlns:dc="http://purl.org/dc/elements/1.1/"
   xmlns:cc="http://creativecommons.org/ns#"
   xmlns:rdf="http://www.w3.org/1999/02/22-rdf-syntax-ns#"
   xmlns:svg="http://www.w3.org/2000/svg"
   xmlns="http://www.w3.org/2000/svg"
   xmlns:sodipodi="http://sodipodi.sourceforge.net/DTD/sodipodi-0.dtd"
   xmlns:inkscape="http://www.inkscape.org/namespaces/inkscape"
   width="50"
   version="1.1"
   height="50"
   viewBox="0 0 50 50"
   enable-background="new 0 0 64 64"
   id="svg10"
   sodipodi:docname="confirm-icon.svg"
   inkscape:version="0.92.0 r15299">
  <metadata
     id="metadata16">
    <rdf:RDF>
      <cc:Work
         rdf:about="">
        <dc:format>image/svg+xml</dc:format>
        <dc:type
           rdf:resource="http://purl.org/dc/dcmitype/StillImage" />
        <dc:title></dc:title>
      </cc:Work>
    </rdf:RDF>
  </metadata>
  <defs
     id="defs14" />
  <sodipodi:namedview
     pagecolor="#ffffff"
     bordercolor="#666666"
     borderopacity="1"
     objecttolerance="10"
     gridtolerance="10"
     guidetolerance="10"
     inkscape:pageopacity="0"
     inkscape:pageshadow="2"
     inkscape:window-width="1160"
     inkscape:window-height="748"
     id="namedview12"
     showgrid="false"
     inkscape:zoom="3.6875"
     inkscape:cx="32"
     inkscape:cy="32"
     inkscape:window-x="0"
     inkscape:window-y="0"
     inkscape:window-maximized="0"
     inkscape:current-layer="svg10" />
  <g
     id="g8"
     transform="scale(0.78125)">
    <g
       id="g6"
       style="fill:#1d1d1b">
      <path
         d="M 46.025,18.086 24.111,42.307 17.201,34.67 c -0.74,-0.82 -2.006,-0.881 -2.824,-0.142 -0.818,0.741 -0.883,2.006 -0.141,2.825 l 8.048,8.894 c 0.368,0.536 0.979,0.85 1.627,0.85 0.073,0 0.146,-0.03 0.22,-0.039 0.051,0.004 0.1,0.032 0.15,0.032 0.592,0 1.166,-0.266 1.555,-0.725 L 48.99,20.77 c 0.742,-0.82 0.678,-2.085 -0.141,-2.826 -0.818,-0.741 -2.083,-0.68 -2.824,0.142 z"
         id="path2"
         inkscape:connector-curvature="0" />
      <path
         d="M 31.998,0 C 14.354,0 0,14.355 0,32 0,49.645 14.354,64 31.998,64 49.645,64 64,49.645 64,32 64,14.355 49.645,0 31.998,0 Z m 0,60 C 16.561,60 4,47.439 4,32 4,16.561 16.561,4 31.998,4 47.438,4 60,16.561 60,32 60,47.439 47.438,60 31.998,60 Z"
         id="path4"
         inkscape:connector-curvature="0" />
    </g>
  </g>
</svg>
