<?xml version="1.0" encoding="UTF-8" standalone="no"?>
<!-- Generator: Adobe Illustrator 19.0.0, SVG Export Plug-In . SVG Version: 6.00 Build 0)  -->

<svg
   xmlns:dc="http://purl.org/dc/elements/1.1/"
   xmlns:cc="http://creativecommons.org/ns#"
   xmlns:rdf="http://www.w3.org/1999/02/22-rdf-syntax-ns#"
   xmlns:svg="http://www.w3.org/2000/svg"
   xmlns="http://www.w3.org/2000/svg"
   xmlns:sodipodi="http://sodipodi.sourceforge.net/DTD/sodipodi-0.dtd"
   xmlns:inkscape="http://www.inkscape.org/namespaces/inkscape"
   version="1.1"
   id="Capa_1"
   x="0px"
   y="0px"
   viewBox="0 0 50 50"
   xml:space="preserve"
   sodipodi:docname="extra-heavy-icon.svg"
   width="50"
   height="50"
   inkscape:version="0.92.0 r15299"><metadata
     id="metadata47"><rdf:RDF><cc:Work
         rdf:about=""><dc:format>image/svg+xml</dc:format><dc:type
           rdf:resource="http://purl.org/dc/dcmitype/StillImage" /><dc:title></dc:title></cc:Work></rdf:RDF></metadata><defs
     id="defs45" /><sodipodi:namedview
     pagecolor="#ffffff"
     bordercolor="#666666"
     borderopacity="1"
     objecttolerance="10"
     gridtolerance="10"
     guidetolerance="10"
     inkscape:pageopacity="0"
     inkscape:pageshadow="2"
     inkscape:window-width="1297"
     inkscape:window-height="806"
     id="namedview43"
     showgrid="false"
     fit-margin-top="0"
     fit-margin-left="0"
     fit-margin-right="0"
     fit-margin-bottom="0"
     inkscape:zoom="0.48163265"
     inkscape:cx="245"
     inkscape:cy="214.741"
     inkscape:window-x="0"
     inkscape:window-y="0"
     inkscape:window-maximized="0"
     inkscape:current-layer="Capa_1" /><g
     id="g10"
     transform="matrix(0.10204082,0,0,0.10204082,-9e-7,5.012041e-5)"><path
       d="M 477.613,48.032 435.235,78.927 V 382.841 H 0 v 21.035 h 35.916 c -2.671,5.231 -4.178,11.15 -4.178,17.415 0,21.199 17.255,38.45 38.455,38.45 21.199,0 38.444,-17.251 38.444,-38.45 0,-6.265 -1.507,-12.184 -4.176,-17.415 h 236.834 c -2.671,5.231 -4.178,11.15 -4.178,17.415 0,21.199 17.255,38.45 38.454,38.45 21.2,0 38.455,-17.251 38.455,-38.45 0,-6.265 -1.508,-12.184 -4.178,-17.415 h 46.423 V 89.619 L 490,65.031 Z M 87.602,421.292 c 0,9.603 -7.805,17.415 -17.409,17.415 -9.604,0 -17.42,-7.811 -17.42,-17.415 0,-9.604 7.817,-17.415 17.42,-17.415 9.604,0 17.409,7.811 17.409,17.415 z m 305.388,0 c 0,9.603 -7.817,17.415 -17.42,17.415 -9.604,0 -17.419,-7.811 -17.419,-17.415 0,-9.604 7.815,-17.415 17.419,-17.415 9.604,0 17.42,7.811 17.42,17.415 z"
       id="path2"
       inkscape:connector-curvature="0" /><path
       d="M 386.088,175.409 H 222.389 v 161.465 h 163.699 z m -21.035,140.43 H 243.424 V 196.444 h 121.629 z"
       id="path4"
       inkscape:connector-curvature="0" /><path
       d="M 366.05,30.258 H 242.427 V 149.186 H 366.05 Z m -21.035,97.893 H 263.462 V 51.293 h 81.553 z"
       id="path6"
       inkscape:connector-curvature="0" /><path
       d="m 195.438,175.409 h -163.7 v 161.465 h 163.7 z m -21.035,140.43 H 52.773 V 196.444 h 121.63 z"
       id="path8"
       inkscape:connector-curvature="0" /></g><g
     id="g12"
     transform="translate(0,-409.741)" /><g
     id="g14"
     transform="translate(0,-409.741)" /><g
     id="g16"
     transform="translate(0,-409.741)" /><g
     id="g18"
     transform="translate(0,-409.741)" /><g
     id="g20"
     transform="translate(0,-409.741)" /><g
     id="g22"
     transform="translate(0,-409.741)" /><g
     id="g24"
     transform="translate(0,-409.741)" /><g
     id="g26"
     transform="translate(0,-409.741)" /><g
     id="g28"
     transform="translate(0,-409.741)" /><g
     id="g30"
     transform="translate(0,-409.741)" /><g
     id="g32"
     transform="translate(0,-409.741)" /><g
     id="g34"
     transform="translate(0,-409.741)" /><g
     id="g36"
     transform="translate(0,-409.741)" /><g
     id="g38"
     transform="translate(0,-409.741)" /><g
     id="g40"
     transform="translate(0,-409.741)" /></svg>