<?xml version="1.0" encoding="UTF-8" standalone="no"?>
<!-- Generator: Adobe Illustrator 18.0.0, SVG Export Plug-In . SVG Version: 6.00 Build 0)  -->

<svg
   xmlns:dc="http://purl.org/dc/elements/1.1/"
   xmlns:cc="http://creativecommons.org/ns#"
   xmlns:rdf="http://www.w3.org/1999/02/22-rdf-syntax-ns#"
   xmlns:svg="http://www.w3.org/2000/svg"
   xmlns="http://www.w3.org/2000/svg"
   xmlns:sodipodi="http://sodipodi.sourceforge.net/DTD/sodipodi-0.dtd"
   xmlns:inkscape="http://www.inkscape.org/namespaces/inkscape"
   version="1.1"
   id="Capa_1"
   x="0px"
   y="0px"
   viewBox="0 0 50 50"
   xml:space="preserve"
   sodipodi:docname="001-exercise.svg"
   width="50"
   height="50"
   inkscape:version="0.92.0 r15299"><metadata
     id="metadata51"><rdf:RDF><cc:Work
         rdf:about=""><dc:format>image/svg+xml</dc:format><dc:type
           rdf:resource="http://purl.org/dc/dcmitype/StillImage" /><dc:title></dc:title></cc:Work></rdf:RDF></metadata><defs
     id="defs49" /><sodipodi:namedview
     pagecolor="#ffffff"
     bordercolor="#666666"
     borderopacity="1"
     objecttolerance="10"
     gridtolerance="10"
     guidetolerance="10"
     inkscape:pageopacity="0"
     inkscape:pageshadow="2"
     inkscape:window-width="1299"
     inkscape:window-height="751"
     id="namedview47"
     showgrid="false"
     fit-margin-top="0"
     fit-margin-left="0"
     fit-margin-right="0"
     fit-margin-bottom="0"
     inkscape:zoom="0.51420043"
     inkscape:cx="171.6735"
     inkscape:cy="229.4825"
     inkscape:window-x="0"
     inkscape:window-y="0"
     inkscape:window-maximized="0"
     inkscape:current-layer="Capa_1" /><g
     id="g14"
     transform="matrix(0.10894077,0,0,0.10894077,5.4216026e-5,-2.51525e-7)"><path
       d="m 145.547,154.773 c 1.561,0.915 3.308,1.373 5.057,1.373 1.683,0 3.368,-0.425 4.886,-1.275 22.49,-12.595 48.076,-19.253 73.993,-19.253 25.917,0 51.503,6.657 73.993,19.253 3.096,1.734 6.88,1.697 9.943,-0.097 3.062,-1.795 4.943,-5.078 4.943,-8.627 v -41.063 c 0,-34.715 -28.243,-62.958 -62.958,-62.958 h -51.842 c -34.715,0 -62.958,28.243 -62.958,62.958 v 41.064 c -0.001,3.547 1.881,6.831 4.943,8.625 z m 15.056,-49.691 c 0,-23.688 19.271,-42.958 42.958,-42.958 h 51.842 c 23.687,0 42.958,19.271 42.958,42.958 v 24.937 c -21.611,-9.457 -45.124,-14.401 -68.879,-14.401 -23.754,0 -47.267,4.944 -68.879,14.402 z"
       id="path2"
       inkscape:connector-curvature="0" /><path
       d="M 360.486,176.354 V 105.082 C 360.486,47.14 313.346,0 255.403,0 H 203.561 C 145.619,0 98.479,47.14 98.479,105.082 v 71.271 c -26.254,30.979 -40.67,70.221 -40.67,110.938 0,94.661 77.012,171.674 171.673,171.674 94.661,0 171.673,-77.012 171.673,-171.674 0.001,-40.717 -14.415,-79.959 -40.669,-110.937 z M 229.482,438.965 c -83.633,0 -151.673,-68.041 -151.673,-151.674 0,-37.107 13.55,-72.824 38.153,-100.573 1.622,-1.829 2.518,-4.189 2.518,-6.634 V 105.082 C 118.48,58.168 156.647,20 203.562,20 h 51.842 c 46.915,0 85.083,38.168 85.083,85.082 v 75.002 c 0,2.445 0.896,4.805 2.518,6.634 24.603,27.748 38.152,63.466 38.152,100.573 -10e-4,83.633 -68.042,151.674 -151.675,151.674 z"
       id="path4"
       inkscape:connector-curvature="0" /><path
       d="m 264.306,153.33 c -11.315,-2.93 -23.031,-4.416 -34.823,-4.416 -5.523,0 -10,4.477 -10,10 0,5.523 4.477,10 10,10 10.102,0 20.131,1.271 29.81,3.777 0.841,0.218 1.684,0.322 2.514,0.322 4.448,0 8.507,-2.99 9.674,-7.495 1.383,-5.346 -1.829,-10.803 -7.175,-12.188 z"
       id="path6"
       inkscape:connector-curvature="0" /><path
       d="m 302.404,169.641 c -4.694,-2.911 -10.858,-1.467 -13.769,3.227 -2.911,4.693 -1.466,10.858 3.227,13.769 35.157,21.806 56.146,59.49 56.146,100.803 0,5.523 4.477,10 10,10 5.523,0 10,-4.477 10,-10 0.001,-48.283 -24.524,-92.32 -65.604,-117.799 z"
       id="path8"
       inkscape:connector-curvature="0" /><path
       d="m 229.482,405.966 c -13.609,0 -26.948,-2.284 -39.645,-6.79 -5.203,-1.846 -10.921,0.875 -12.769,6.08 -1.847,5.205 0.875,10.921 6.08,12.768 14.85,5.269 30.439,7.941 46.333,7.941 5.523,0 10,-4.477 10,-10 0,-5.523 -4.476,-9.999 -9.999,-9.999 z"
       id="path10"
       inkscape:connector-curvature="0" /><path
       d="m 163.257,385.754 c -32.749,-22.107 -52.3,-58.86 -52.3,-98.314 0,-5.523 -4.477,-10 -10,-10 -5.523,0 -10,4.477 -10,10 0,46.11 22.845,89.059 61.11,114.89 1.716,1.158 3.661,1.713 5.586,1.713 3.211,0 6.366,-1.544 8.297,-4.406 3.09,-4.577 1.884,-10.793 -2.693,-13.883 z"
       id="path12"
       inkscape:connector-curvature="0" /></g><g
     id="g16"
     transform="translate(-57.809,-408.965)" /><g
     id="g18"
     transform="translate(-57.809,-408.965)" /><g
     id="g20"
     transform="translate(-57.809,-408.965)" /><g
     id="g22"
     transform="translate(-57.809,-408.965)" /><g
     id="g24"
     transform="translate(-57.809,-408.965)" /><g
     id="g26"
     transform="translate(-57.809,-408.965)" /><g
     id="g28"
     transform="translate(-57.809,-408.965)" /><g
     id="g30"
     transform="translate(-57.809,-408.965)" /><g
     id="g32"
     transform="translate(-57.809,-408.965)" /><g
     id="g34"
     transform="translate(-57.809,-408.965)" /><g
     id="g36"
     transform="translate(-57.809,-408.965)" /><g
     id="g38"
     transform="translate(-57.809,-408.965)" /><g
     id="g40"
     transform="translate(-57.809,-408.965)" /><g
     id="g42"
     transform="translate(-57.809,-408.965)" /><g
     id="g44"
     transform="translate(-57.809,-408.965)" /></svg>