<?xml version="1.0" encoding="UTF-8" standalone="no"?>
<!-- Generator: Adobe Illustrator 19.1.0, SVG Export Plug-In . SVG Version: 6.00 Build 0)  -->

<svg
   xmlns:dc="http://purl.org/dc/elements/1.1/"
   xmlns:cc="http://creativecommons.org/ns#"
   xmlns:rdf="http://www.w3.org/1999/02/22-rdf-syntax-ns#"
   xmlns:svg="http://www.w3.org/2000/svg"
   xmlns="http://www.w3.org/2000/svg"
   xmlns:sodipodi="http://sodipodi.sourceforge.net/DTD/sodipodi-0.dtd"
   xmlns:inkscape="http://www.inkscape.org/namespaces/inkscape"
   version="1.1"
   id="Capa_1"
   x="0px"
   y="0px"
   viewBox="0 0 49.989507 50.000005"
   xml:space="preserve"
   sodipodi:docname="stats-icon.svg"
   width="49.989506"
   height="50.000004"
   inkscape:version="0.92.0 r15299"><metadata
     id="metadata45"><rdf:RDF><cc:Work
         rdf:about=""><dc:format>image/svg+xml</dc:format><dc:type
           rdf:resource="http://purl.org/dc/dcmitype/StillImage" /><dc:title /></cc:Work></rdf:RDF></metadata><defs
     id="defs43" /><sodipodi:namedview
     pagecolor="#ffffff"
     bordercolor="#666666"
     borderopacity="1"
     objecttolerance="10"
     gridtolerance="10"
     guidetolerance="10"
     inkscape:pageopacity="0"
     inkscape:pageshadow="2"
     inkscape:window-width="1108"
     inkscape:window-height="721"
     id="namedview41"
     showgrid="false"
     fit-margin-top="0"
     fit-margin-left="0"
     fit-margin-right="0"
     fit-margin-bottom="0"
     inkscape:zoom="3.9638884"
     inkscape:cx="27.732528"
     inkscape:cy="9.5844373"
     inkscape:window-x="295"
     inkscape:window-y="176"
     inkscape:window-maximized="0"
     inkscape:current-layer="Capa_1" /><g
     id="g8"
     transform="matrix(0.10497586,0,0,0.10497586,-0.00524818,8.4834863e-7)"><g
       id="g6"><path
         d="M 411.75,250.2 H 226.15 V 64.6 c 0,-7.5 -6,-13.5 -13.5,-13.5 -117.2,0 -212.6,95.4 -212.6,212.6 0,117.2 95.4,212.6 212.6,212.6 117.2,0 212.6,-95.4 212.6,-212.6 0,-7.4 -6.1,-13.5 -13.5,-13.5 z m -199.1,199.1 c -102.3,0 -185.6,-83.3 -185.6,-185.6 0,-97.8 76,-178.2 172.1,-185.1 v 185.1 c 0,7.5 6,13.5 13.5,13.5 h 185.1 c -6.9,96.1 -87.3,172.1 -185.1,172.1 z"
         id="path2"
         inkscape:connector-curvature="0" /><path
         d="m 476.25,211.9 c -0.2,-51.6 -19.1,-101.3 -53.2,-140 C 382.65,26.2 324.65,0 263.65,0 c -7.5,0 -13.5,6 -13.5,13.5 v 199.1 c 0,7.5 6,13.5 13.5,13.5 h 199.1 v 0 c 7.5,0 13.5,-6 13.5,-13.5 0,-0.2 0,-0.4 0,-0.7 z M 277.15,199.2 V 27.6 c 48.2,3.5 93.4,25.8 125.6,62.3 27,30.5 43,68.9 46,109.3 z"
         id="path4"
         inkscape:connector-curvature="0"
         style="fill:currentColor" /></g></g><g
     id="g10"
     transform="translate(-0.04999999,-426.3)" /><g
     id="g12"
     transform="translate(-0.04999999,-426.3)" /><g
     id="g14"
     transform="translate(-0.04999999,-426.3)" /><g
     id="g16"
     transform="translate(-0.04999999,-426.3)" /><g
     id="g18"
     transform="translate(-0.04999999,-426.3)" /><g
     id="g20"
     transform="translate(-0.04999999,-426.3)" /><g
     id="g22"
     transform="translate(-0.04999999,-426.3)" /><g
     id="g24"
     transform="translate(-0.04999999,-426.3)" /><g
     id="g26"
     transform="translate(-0.04999999,-426.3)" /><g
     id="g28"
     transform="translate(-0.04999999,-426.3)" /><g
     id="g30"
     transform="translate(-0.04999999,-426.3)" /><g
     id="g32"
     transform="translate(-0.04999999,-426.3)" /><g
     id="g34"
     transform="translate(-0.04999999,-426.3)" /><g
     id="g36"
     transform="translate(-0.04999999,-426.3)" /><g
     id="g38"
     transform="translate(-0.04999999,-426.3)" /></svg>