<?xml version="1.0" encoding="UTF-8" standalone="no"?><svg xmlns="http://www.w3.org/2000/svg" xmlns:xlink="http://www.w3.org/1999/xlink"><symbol viewBox="0 0 50 50" id="extra-heavy-icon"><g transform="scale(.10204)"><path d="M477.613 48.032l-42.378 30.895v303.914H0v21.035h35.916a38.188 38.188 0 0 0-4.178 17.415c0 21.199 17.255 38.45 38.455 38.45 21.199 0 38.444-17.251 38.444-38.45a38.212 38.212 0 0 0-4.176-17.415h236.834a38.188 38.188 0 0 0-4.178 17.415c0 21.199 17.255 38.45 38.454 38.45 21.2 0 38.455-17.251 38.455-38.45a38.2 38.2 0 0 0-4.178-17.415h46.423V89.619L490 65.031zM87.602 421.292c0 9.603-7.805 17.415-17.409 17.415s-17.42-7.811-17.42-17.415 7.817-17.415 17.42-17.415c9.604 0 17.409 7.811 17.409 17.415zm305.388 0c0 9.603-7.817 17.415-17.42 17.415-9.604 0-17.419-7.811-17.419-17.415s7.815-17.415 17.419-17.415 17.42 7.811 17.42 17.415z"/><path d="M386.088 175.409H222.389v161.465h163.699zm-21.035 140.43H243.424V196.444h121.629zM366.05 30.258H242.427v118.928H366.05zm-21.035 97.893h-81.553V51.293h81.553zM195.438 175.409h-163.7v161.465h163.7zm-21.035 140.43H52.773V196.444h121.63z"/></g></symbol><symbol viewBox="0 0 50 50" id="loading-icon"><g transform="scale(.74627)"><path d="M33.5 0A2.5 2.5 0 0 0 31 2.5v17a2.5 2.5 0 1 0 5 0v-17A2.5 2.5 0 0 0 33.5 0zM33.5 45a2.5 2.5 0 0 0-2.5 2.5v17a2.5 2.5 0 1 0 5 0v-17a2.5 2.5 0 0 0-2.5-2.5zM22 33.619a2.5 2.5 0 0 0-2.5-2.5h-17a2.5 2.5 0 1 0 0 5h17a2.5 2.5 0 0 0 2.5-2.5zM64.5 31.119h-17a2.5 2.5 0 1 0 0 5h17a2.5 2.5 0 1 0 0-5zM14.079 9.6a2.499 2.499 0 1 0-3.535 3.535l12.021 12.021a2.493 2.493 0 0 0 1.768.732 2.498 2.498 0 0 0 1.768-4.267zM45.898 41.42a2.499 2.499 0 1 0-3.535 3.535l12.021 12.021a2.493 2.493 0 0 0 1.768.732 2.498 2.498 0 0 0 1.768-4.267zM22.564 42.127l-12.02 12.02a2.498 2.498 0 0 0 1.768 4.267c.64 0 1.279-.244 1.768-.732l12.02-12.02a2.5 2.5 0 0 0-3.536-3.535zM42.363 25.863a2.493 2.493 0 0 0 1.768.732c.64 0 1.279-.244 1.768-.732L57.92 13.842a2.499 2.499 0 1 0-3.535-3.535L42.363 22.328a2.5 2.5 0 0 0 0 3.535z"/></g></symbol></svg>