<?xml version="1.0" encoding="iso-8859-1"?><svg xmlns="http://www.w3.org/2000/svg" xmlns:xlink="http://www.w3.org/1999/xlink"><symbol viewBox="0 0 457.481 457.481" id="easy-icon"><path d="M415.393 208.547a9.061 9.061 0 0 0-1.649-1.649c-24.428-24.045-57.245-39.598-93.6-41.815V52.119h41.067a9 9 0 0 0 8.585-6.3l10.729-34.116A9.001 9.001 0 0 0 374.64.417c-4.744-1.493-9.794 1.144-11.286 5.885l-8.748 27.816h-86.923l-8.748-27.816A8.997 8.997 0 0 0 247.649.417a9 9 0 0 0-5.885 11.286l10.729 34.116a9 9 0 0 0 8.585 6.3h41.064v77.699c-68.064 3.34-126.395 44.333-154.547 102.543V151.17h14.722c4.971 0 9-4.029 9-9s-4.029-9-9-9h-47.444c-4.971 0-9 4.029-9 9s4.029 9 9 9h14.722v159.975c0 25.873 5.173 50.503 15.398 73.413l-17.753-.002c-4.384-31.012-31.102-54.943-63.305-54.943-35.254 0-63.936 28.681-63.936 63.935 0 35.254 28.681 63.935 63.936 63.935 32.196 0 58.91-23.923 63.302-54.926l32.272.004h.001a9.001 9.001 0 0 0 7.887-13.335c-13.14-23.905-19.802-50.174-19.802-78.079 0-87.159 68.539-158.612 154.547-163.303v17.24c-36.359 2.218-69.177 17.771-93.605 41.821a9.049 9.049 0 0 0-1.636 1.636c-26.021 26.43-42.094 62.674-42.094 102.605 0 39.926 16.077 76.174 42.092 102.604a9.104 9.104 0 0 0 1.641 1.641c26.429 26.015 62.677 42.092 102.603 42.092s76.168-16.072 102.598-42.087a8.982 8.982 0 0 0 1.652-1.653c26.015-26.429 42.085-62.67 42.085-102.596s-16.07-76.17-42.085-102.6zM59.703 402.546l49.282.006c-4.197 21.032-22.801 36.929-45.048 36.929-25.329 0-45.936-20.606-45.936-45.935s20.606-45.935 45.936-45.935c22.252 0 40.859 15.903 45.051 36.941l-49.283-.006h-.001c-4.97 0-9 4.029-9 8.999s4.028 9.001 8.999 9.001zm379.465-100.401H338.044a28.11 28.11 0 0 0-1.519-3.654l71.466-71.465c17.764 20.423 29.185 46.488 31.177 75.119zM320.144 183.121c28.631 1.992 54.698 13.415 75.12 31.178l-71.466 71.465a28.192 28.192 0 0 0-3.654-1.519V183.121zm-18 0v101.124a28.098 28.098 0 0 0-3.653 1.519l-71.466-71.466c20.422-17.763 46.488-29.186 75.119-31.177zm-87.847 43.904l71.466 71.466a28.192 28.192 0 0 0-1.519 3.654H183.12c1.992-28.631 13.414-54.697 31.177-75.12zm-31.177 93.12h101.124a28.04 28.04 0 0 0 1.519 3.653l-71.466 71.466c-17.763-20.422-29.185-46.488-31.177-75.119zm119.024 119.024c-28.631-1.992-54.697-13.414-75.119-31.177l71.465-71.466a28.192 28.192 0 0 0 3.654 1.519v101.124zm9-117.66c-5.714 0-10.363-4.649-10.363-10.364s4.649-10.364 10.363-10.364 10.364 4.649 10.364 10.364-4.65 10.364-10.364 10.364zm9 117.66V338.045a28.11 28.11 0 0 0 3.654-1.519l71.466 71.466c-20.423 17.763-46.489 29.186-75.12 31.177zm87.848-43.905l-71.466-71.466a28.438 28.438 0 0 0 1.519-3.653h101.124c-1.993 28.631-13.414 54.696-31.177 75.119z"/></symbol><symbol viewBox="0 0 511.999 511.999" id="hard-icon"><path d="M69.453 371.091c-4.802-4.8-12.588-4.8-17.391 0l-25.255 25.255c-4.802 4.802-4.802 12.588 0 17.391a12.263 12.263 0 0 0 8.695 3.602c3.148 0 6.296-1.201 8.696-3.602l25.255-25.255c4.802-4.802 4.802-12.588 0-17.391zM105.176 406.814c-4.8-4.8-12.588-4.8-17.389 0L3.601 491.001c-4.802 4.802-4.802 12.588 0 17.391 2.4 2.4 5.548 3.602 8.695 3.602 3.147 0 6.294-1.201 8.695-3.602l84.185-84.187c4.803-4.803 4.802-12.589 0-17.391zM140.901 442.54c-4.803-4.802-12.588-4.803-17.389-.001l-42.093 42.093c-4.802 4.802-4.803 12.588 0 17.391 2.401 2.4 5.548 3.602 8.695 3.602s6.294-1.201 8.695-3.602l42.093-42.091c4.8-4.803 4.802-12.589-.001-17.392zM372.797 139.201c-14.32-14.32-33.361-22.208-53.614-22.208-20.254 0-39.294 7.887-53.616 22.208-14.32 14.32-22.208 33.362-22.208 53.616s7.888 39.294 22.208 53.616c14.32 14.32 33.361 22.207 53.616 22.207 20.253 0 39.293-7.887 53.614-22.207 29.563-29.566 29.563-77.668 0-107.232zm-17.391 89.841c-9.675 9.676-22.54 15.005-36.224 15.005-13.685 0-26.55-5.329-36.225-15.005-9.677-9.676-15.005-22.54-15.005-36.225s5.328-26.549 15.005-36.225c9.675-9.676 22.54-15.005 36.225-15.005 13.683 0 26.549 5.329 36.224 15.005 19.974 19.974 19.974 52.476 0 72.45z"/><path d="M503.429 17.28a12.299 12.299 0 0 0-8.705-8.705c-42.05-11.241-86.564-11.426-128.727-.536-6.572 1.698-13.05 3.693-19.443 5.911-.553.151-1.098.341-1.63.57a252.625 252.625 0 0 0-93.832 59.178l-.045.044c-.069.069-.14.134-.209.203-.113.113-.21.235-.317.35-.103.112-.214.214-.315.331l-37.664 43.835c-59.25-.654-116.831 22.757-158.814 64.74-13.651 13.651-25.43 28.95-35.009 45.472a12.296 12.296 0 0 0 7.604 18.083l68.347 17.399-13.373 36.318c-6.604 17.937-2.138 38.259 11.377 51.774l67.085 67.085c9.369 9.367 22.005 14.388 34.853 14.388a48.97 48.97 0 0 0 16.923-3.011l36.321-13.373 17.402 68.35a12.295 12.295 0 0 0 18.083 7.603c16.519-9.578 31.817-21.356 45.472-35.009 41.986-41.986 65.386-99.576 64.739-158.823l43.83-37.66c.114-.098.214-.207.325-.309.118-.109.243-.209.358-.323.07-.07.135-.143.205-.211.013-.015.028-.028.042-.043a252.61 252.61 0 0 0 59.178-93.828c.226-.535.418-1.082.569-1.638 2.218-6.39 4.213-12.868 5.91-19.439 10.887-42.162 10.701-86.675-.54-128.726zM48.859 227.117a197.968 197.968 0 0 1 22.259-26.526c32.16-32.16 74.618-52.036 119.449-56.553l-84.003 97.769-57.705-14.69zm55.513 81.854l11.445-31.081 15.862 15.862-23.975 38.369c-4.878-6.588-6.213-15.323-3.332-23.15zm21.033 41.231l24.122-38.603 16.745 16.744-31.363 31.362-9.504-9.503zm26.893 26.893l31.363-31.362 16.744 16.744-38.603 24.122-9.504-9.504zm50.735 30.537c-7.828 2.88-16.561 1.546-23.149-3.332l38.368-23.975 15.862 15.862-31.081 11.445zm108.386 33.26a198.18 198.18 0 0 1-26.526 22.259l-14.693-57.71 97.772-84.007c-4.514 44.83-24.394 87.295-56.553 119.458zM420.93 243.508l-163.895 140.82L127.677 254.97l99.48-115.781c.097-.107.189-.219.283-.33l41.056-47.783a228.142 228.142 0 0 1 78.203-50.981l125.21 125.211a228.094 228.094 0 0 1-50.979 78.202zm59.437-104.524L373.023 31.638c35.488-9.017 72.789-9.37 108.392-1.049 8.321 35.602 7.969 72.904-1.048 108.395z"/></symbol></svg>